Coordinates
version=1
nRows=19
nColumns=36
inDegrees=yes

Units are S.I. units (second, meters, Newtons, ...)
If the header above contains a line with 'inDegrees', this indicates whether rotational values are in degrees (yes) or radians (no).

endheader
time	pelvis_tilt	pelvis_list	pelvis_rotation	pelvis_tx	pelvis_ty	pelvis_tz	hip_flexion_r	hip_adduction_r	hip_rotation_r	knee_angle_r	knee_angle_r_beta	ankle_angle_r	subtalar_angle_r	mtp_angle_r	hip_flexion_l	hip_adduction_l	hip_rotation_l	knee_angle_l	knee_angle_l_beta	ankle_angle_l	subtalar_angle_l	mtp_angle_l	lumbar_extension	lumbar_bending	lumbar_rotation	arm_flex_r	arm_add_r	arm_rot_r	elbow_flex_r	pro_sup_r	arm_flex_l	arm_add_l	arm_rot_l	elbow_flex_l	pro_sup_l
      0.00000000	    -15.34849754	      1.27107245	      7.08485802	     -0.14891373	      1.25602855	      0.04004512	     19.65509357	     -4.06051915	     -9.94987941	      6.29127680	      0.10980349	      6.55761520	      2.68741117	     -6.88259075	     23.09196846	     -0.57052549	     -2.06123977	      7.25095983	      0.12655312	      3.10229751	      5.81958127	     -6.88259075	    -39.19530659	     -2.71276659	      2.79835203	     26.81739977	      0.42488129	     39.10336637	     33.80323870	     75.67164005	     22.63261587	    -19.40810492	     30.03434718	     39.65478493	     66.16121149
      0.01666670	    -16.60829797	      0.65248078	      7.26059235	     -0.15210104	      1.25333595	      0.03891461	     20.28392911	     -3.26585769	     -9.65245874	      4.52850162	      0.07903726	      7.81160893	      5.02806481	     -6.98591635	     23.82028234	     -1.03175726	      0.16597905	      4.66450062	      0.08141089	      1.24038172	      7.54969041	     -6.98591635	    -39.50503703	     -2.81048994	      2.71162895	     28.42396295	     -0.40014981	     42.66065688	     32.77175035	     75.95403708	     23.49727048	    -19.58058280	     29.75585900	     39.76615577	     65.95571863
      0.03333330	    -17.22968738	      0.67572765	      7.15240352	     -0.15695605	      1.25460235	      0.03792424	     20.89781496	     -2.99480928	     -9.23703052	      3.16745051	      0.05528244	      6.34946951	      3.65209276	     -7.09913362	     24.40564676	     -1.06464269	      0.80738063	      4.04229188	      0.07055130	     -0.63886315	      7.48644293	     -7.09913362	    -40.19921191	     -3.14877675	      2.12361016	     29.42653807	     -0.60571727	     45.08147817	     32.47257632	     76.12953913	     24.45828208	    -19.58812707	     28.60392195	     39.52052829	     66.21025143
      0.05000000	    -17.13385991	      0.33152611	      7.23044456	     -0.15777672	      1.25211637	      0.03704708	     20.75374862	     -2.65808917	     -9.17983048	      2.74250697	      0.04786578	      5.17773527	      3.33161217	     -7.21087703	     24.30684946	     -1.37973075	      1.43488044	      3.48213055	      0.06077464	     -1.50605524	      7.55014311	     -7.21087703	    -41.22441199	     -2.92663270	      1.94834009	     30.12940392	     -1.28380733	     46.76525165	     32.87610737	     74.82218978	     24.93453960	    -19.70047378	     27.55875129	     38.98085278	     66.02137601
      0.06666670	    -17.41818937	      0.18190973	      7.52339877	     -0.15969868	      1.24744980	      0.03676591	     21.11706054	     -2.69218269	     -9.05772356	      2.63030367	      0.04590746	      4.76742394	      3.15595659	     -7.36825345	     24.77930929	     -1.37370574	      1.81530881	      3.48533072	      0.06083050	     -1.68316323	      7.38675270	     -7.36825345	    -41.64345195	     -2.63466611	      1.50319215	     30.24104326	     -1.69316731	     46.78091552	     34.03305214	     81.11001854	     24.54891573	    -20.02435579	     25.47527226	     39.67254606	     71.81772280
      0.08333330	    -18.25889806	      0.04803243	      7.56686726	     -0.16372868	      1.24027978	      0.03526624	     22.18952884	     -2.80684388	     -8.65044186	      2.73935616	      0.04781078	      4.76141509	      2.66640576	     -7.37102632	     26.08504888	     -1.34151826	      2.28766810	      3.86359653	      0.06743248	     -1.04212352	      7.32495706	     -7.37102632	    -41.30352424	     -2.36266716	      1.50688217	     30.25909102	     -2.14675214	     47.31518357	     35.01929194	     81.24224968	     24.76579056	    -20.16263373	     25.53000534	     40.51904053	     71.91182068
      0.10000000	    -18.82950987	      0.05065545	      7.49614567	     -0.15927311	      1.24468758	      0.03578953	     22.86019707	     -2.95012467	     -8.20428512	      3.04256372	      0.05310275	      4.81484348	      2.35821264	     -7.37351084	     26.98726370	     -1.30338291	      2.76249735	      4.33526391	      0.07566463	     -0.74336742	      6.91877516	     -7.37351084	    -41.47320471	     -2.38741494	      1.45256334	     30.46218560	     -2.42336418	     47.54562215	     35.74318496	     81.35039696	     24.71477093	    -20.12572362	     25.27380445	     40.89155925	     71.92835402
      0.11666670	    -19.56953073	      0.13497379	      7.39837661	     -0.16026762	      1.24342190	      0.03529934	     23.69598271	     -3.16527476	     -7.72859098	      3.22286122	      0.05624954	      4.78898274	      1.87698835	     -7.39063492	     28.01241432	     -1.15760995	      3.11196903	      4.95441595	      0.08647087	     -0.46003139	      6.32102188	     -7.39063492	    -41.45166433	     -2.50443083	      1.33163867	     30.34411250	     -2.68845148	     46.85986797	     37.32084747	     79.74185894	     24.38409994	    -20.14316679	     24.37255523	     42.30260243	     70.79668608
      0.13333330	    -20.58446127	      0.09777318	      7.35392872	     -0.16517867	      1.23327911	      0.03647456	     25.03523726	     -3.27050755	     -7.35916455	      3.57035396	      0.06231443	      5.14890098	      1.53752627	     -7.39242896	     29.54826855	     -1.11634040	      3.41600639	      5.65415630	      0.09868364	      0.23581666	      5.67983545	     -7.39242896	    -40.74435459	     -2.56864872	      1.15998601	     30.46985941	     -2.77271096	     46.83034069	     38.78022413	     80.01558302	     24.02711475	    -20.31212333	     24.06271508	     43.25914358	     70.87494950
      0.15000000	    -21.41806699	      0.00402601	      7.37133487	     -0.16615430	      1.23099620	      0.03526447	     26.11607257	     -3.33119322	     -7.02363103	      3.79323144	      0.06620438	      5.22291894	      0.72309507	     -7.41133609	     30.77270878	     -1.10141799	      3.82042042	      5.90343861	      0.10303444	      0.60401232	      5.24642773	     -7.41133609	    -40.36704725	     -2.51396539	      0.92976664	     30.05665530	     -3.04233668	     45.71015094	     41.21877993	     78.06269767	     23.35109655	    -20.34735047	     22.76804703	     45.36484503	     69.40104330
      0.16666670	    -22.32679898	     -0.19773158	      7.65549981	     -0.16742716	      1.21613971	      0.03389183	     27.19550706	     -3.35941400	     -6.64948695	      4.02547827	      0.07025785	      5.88170167	     -0.35331845	     -7.41918380	     32.33459621	     -1.03880891	      4.48679554	      6.61633923	      0.11547690	      1.70668572	      4.78228434	     -7.41918380	    -39.51447897	     -2.25899178	      0.58495528	     29.43996781	     -3.13577623	     44.14018598	     43.66991142	     80.66443782	     22.22445880	    -20.24379226	     20.57755135	     47.66114592	     70.08568575
      0.18333330	    -22.88497457	     -0.38060569	      7.77190403	     -0.16336728	      1.22200104	      0.03287561	     27.68940035	     -3.32449400	     -6.50499723	      4.12740986	      0.07203689	      6.47944286	     -0.71486053	     -7.42235487	     33.16213311	     -1.08216558	      5.13448379	      6.91237910	      0.12064377	      2.50033303	      4.95355924	     -7.42235487	    -38.90972043	     -2.03048347	      0.48501798	     29.24302081	     -3.11707322	     43.24606611	     44.91886146	     81.59428479	     21.88510406	    -19.86273690	     19.95711004	     48.47277716	     70.28870898
      0.20000000	    -22.63735364	     -0.50042514	      7.87292108	     -0.15870573	      1.22209822	      0.03248319	     27.05556868	     -3.20142164	     -6.45071231	      4.01107670	      0.07000649	      6.56139677	     -1.40171359	     -7.42845972	     32.96118445	     -1.17784640	      5.66291696	      6.85807904	      0.11969606	      2.79708226	      4.88318781	     -7.42845972	    -39.17554921	     -1.95999016	      0.52909529	     29.10730587	     -2.80444595	     42.32069447	     45.42301937	     81.10700484	     21.77477903	    -19.32771873	     19.32479652	     48.71812615	     69.80006071
      0.21666670	    -22.72196097	     -0.47558679	      7.76096278	     -0.16263941	      1.23124494	      0.03195067	     27.02176177	     -3.24240365	     -6.39376866	      3.95940932	      0.06910473	      6.62119385	     -1.40083996	     -7.42854873	     33.01380424	     -1.19213056	      5.79339452	      6.85067931	      0.11956691	      2.77740616	      4.93281711	     -7.42854873	    -39.28410663	     -2.11074621	      0.46985121	     29.49225972	     -2.49718179	     42.23044721	     45.50082737	     81.13532326	     21.93001785	    -18.93965037	     19.34793132	     48.73724828	     69.80234319
      0.23333330	    -21.76807815	     -0.11602711	      7.58366935	     -0.16729453	      1.24277457	      0.03412741	     25.81169971	     -3.36516245	     -5.77296995	      3.41638494	      0.05962717	      6.61579881	     -0.96693876	     -7.43010968	     31.87647562	     -1.03297813	      5.91443548	      6.73302081	      0.11751338	      2.24902557	      4.83622141	     -7.43010968	    -41.14899358	     -2.63528017	      0.91664185	     30.80558243	     -1.64055662	     40.73722864	     43.51360134	     81.58466281	     23.65275061	    -17.85288549	     18.44494975	     47.05273333	     69.70233635
      0.25000000	    -21.54307405	     -0.06122469	      7.39811717	     -0.17089086	      1.23887388	      0.03239974	     25.61408925	     -3.36036791	     -5.50699703	      3.04288902	      0.05310843	      6.17934858	     -0.88420473	     -7.43227803	     31.90862827	     -0.95974110	      6.15186108	      7.17005116	      0.12514100	      1.93797766	      5.00499904	     -7.43227803	    -42.28503255	     -2.80396810	      1.37427783	     31.84270278	     -0.94815277	     39.51234394	     41.86336429	     82.25802174	     25.00304649	    -16.97794199	     18.25970144	     45.79355602	     69.70382594
      0.26666670	    -21.74250047	     -0.01122870	      7.14422574	     -0.17770742	      1.23646481	      0.03252825	     26.03809609	     -3.37622295	     -5.24406126	      2.81355211	      0.04910575	      5.91511159	     -0.80287632	     -7.44678472	     32.79761541	     -0.89530886	      6.14512298	      7.86008228	      0.13718432	      1.97277979	      5.24441141	     -7.44678472	    -43.15703680	     -3.09060335	      2.10108447	     33.12109855	     -0.51681819	     38.71878197	     40.28493240	     83.33599631	     26.79335582	    -16.18471663	     19.23002222	     44.22133831	     69.21859401
      0.28333330	    -22.02096584	     -0.01589138	      6.93545945	     -0.18098628	      1.23213619	      0.03311827	     26.71986556	     -3.39160600	     -5.03809956	      2.75142401	      0.04802141	      5.78856878	     -0.65560376	     -7.47757184	     33.97947819	     -0.83040109	      6.31007413	      9.14006500	      0.15952423	      2.03556547	      5.35417205	     -7.47757184	    -43.92048041	     -3.33147920	      2.76206503	     33.98410358	      0.03461736	     36.83594524	     38.61952672	     88.05127733	     27.95370888	    -15.37369701	     18.77413441	     43.50121680	     69.74747402
      0.30000000	    -21.93214924	     -0.09653298	      6.85679259	     -0.17840529	      1.23022361	      0.03324716	     26.77008941	     -3.27953088	     -5.15533813	      2.69469746	      0.04703134	      6.04213685	     -0.12851335	     -7.47699484	     34.72654182	     -0.90329671	      6.66977273	     10.37733780	      0.18111871	      2.34869767	      5.56984174	     -7.47699484	    -44.93629606	     -3.34171833	      3.22768615	     34.75360911	      0.48576760	     36.85941611	     36.58971391	     86.92183752	     28.86736294	    -14.75599690	     18.54247141	     42.68031230	     69.09929072
